<?xml version="1.0" encoding="utf-8"?>
<!-- Generator: Adobe Illustrator 25.0.0, SVG Export Plug-In . SVG Version: 6.00 Build 0)  -->
<svg version="1.1" id="Layer_1" xmlns="http://www.w3.org/2000/svg" xmlns:xlink="http://www.w3.org/1999/xlink" x="0px" y="0px"
	 viewBox="0 0 216 216" style="enable-background:new 0 0 216 216;" xml:space="preserve">
<style type="text/css">
	.st0{fill:#FFFFFF;}
	.st1{fill:#2364AF;}
	.st2{font-family:'LustScript';}
	.st3{font-size:62.0281px;}
</style>
<path class="st0" d="M189.8,103c2.4-7.3,0.8-15.2-4.2-20.8c-5.7-6.3-14.8-8.6-23-5.7c-5.6-17-21.4-29.2-39.9-29.2
	c-14.6,0-27.5,7.6-35,19.1c-4.2-1.9-8.8-3-13.6-3C55.3,63.4,40,79.5,40,99.3c0,1,0,2,0.1,3c-1.6-0.2-3.2-0.3-4.9-0.3
	c-18.2,0-33,12.4-33,27.7c0,15.9,18,27.3,32.9,27.7c9.5,0.3,16.7-3.9,20.2-6.3c5.1,4,25.3,18.9,54.4,17.5
	c25.8-1.2,43-14.3,48.5-18.9c5.9,4.7,13.9,7.6,22.7,7.6c18.2,0,32.9-12.4,32.9-27.7C213.8,117,203.6,106.3,189.8,103z"/>
<text transform="matrix(1 0 0 1 38.6942 134.1252)" class="st1 st2 st3">AD</text>
</svg>
